# xmcd CD database file
#
# Track frame offsets:
#	152
#	19377
#	37914
#	58829
#	74067
#	96791
#	120731
#	137270
#	159476
#	180745
#	211535
#
# Disc length: 3173 seconds
#
# Revision: 0
# Processed by: cddbd v1.5.2PL0 Copyright (c) Steve Scherf et al.
# Submitted via: CDex 1.78
#
DISCID=940c630b
DTITLE=Anne Vanschothorst - Beautiful World
DYEAR=2017
DGENRE=Jazz
TTITLE0=Michael Moore (clarinet) - All Is Well
TTITLE1=Arthur Bont (percussion) - My Heart Was Bending 
TTITLE2=Michael Moore (clarinet)  - Something Moved Me
TTITLE3=Thijs de Melker (organ) - Terra Incognita 
TTITLE4=Arthur Bont (percussion) - Oh Let It Have Voice
TTITLE5=Rebecca Sier (vocals), Thijs de Melker (piano, keys) - Why
TTITLE6=Jan Willem Troost (cello) - Lost Child
TTITLE7=Michael Moore (clarinet) - If Theese Wings Could Fly
TTITLE8=Jan Willem Troost (cello) - Indeed a Space Oddity
TTITLE9=Arthur Bont (percussion), Thijs de Melker (bass) - Today I Am a Bird
TTITLE10=Jan Willem Troost (cello) - Beautiful World
EXTD=YEAR: 2017
EXTT0=
EXTT1=
EXTT2=
EXTT3=
EXTT4=
EXTT5=
EXTT6=
EXTT7=
EXTT8=
EXTT9=
EXTT10=
PLAYORDER=
